<?xml version="1.0" encoding="UTF-8" standalone="no"?>
<svg
   xmlns:dc="http://purl.org/dc/elements/1.1/"
   xmlns:cc="http://creativecommons.org/ns#"
   xmlns:rdf="http://www.w3.org/1999/02/22-rdf-syntax-ns#"
   xmlns:svg="http://www.w3.org/2000/svg"
   xmlns="http://www.w3.org/2000/svg"
   xmlns:sodipodi="http://sodipodi.sourceforge.net/DTD/sodipodi-0.dtd"
   xmlns:inkscape="http://www.inkscape.org/namespaces/inkscape"
   version="1.1"
   width="147.60001"
   height="81"
   id="svg4682"
   sodipodi:docname="tm1637_4digit_display_breadboard.svg"
   inkscape:version="0.92.1 r15371">
  <defs
     id="defs4686" />
  <sodipodi:namedview
     pagecolor="#ffffff"
     bordercolor="#666666"
     borderopacity="1"
     objecttolerance="10"
     gridtolerance="10"
     guidetolerance="10"
     inkscape:pageopacity="0"
     inkscape:pageshadow="2"
     inkscape:window-width="1792"
     inkscape:window-height="1057"
     id="namedview4684"
     showgrid="false"
     inkscape:zoom="3.8888887"
     inkscape:cx="73.800003"
     inkscape:cy="40.5"
     inkscape:window-x="120"
     inkscape:window-y="-8"
     inkscape:window-maximized="1"
     inkscape:current-layer="svg4682" />
  <metadata
     id="metadata13579">
    <rdf:RDF>
      <cc:Work
         rdf:about="">
        <dc:format>image/svg+xml</dc:format>
        <dc:type
           rdf:resource="http://purl.org/dc/dcmitype/StillImage" />
      </cc:Work>
    </rdf:RDF>
  </metadata>
  <rect
     style="opacity:1;fill:#000000;fill-opacity:1;stroke:#eeeeee;stroke-width:0.92788553;stroke-linecap:butt;stroke-miterlimit:4;stroke-dasharray:none;stroke-opacity:0"
     id="rect5359"
     width="141.9697"
     height="60.680218"
     x="5.643724"
     y="11.590345"
     rx="5.0009456"
     ry="4.2905202" />
  <g
     id="g102"
     transform="matrix(1.2499976,0,0,1.2499976,-7.94781,-1254.8923)">
    <path
       id="connector3pin"
       d="m 15.662983,1029.8187 v -2.2677 h 2.267515 v 2.2677 z"
       inkscape:connector-curvature="0"
       style="fill:#ffe500" />
    <path
       id="connector2pin"
       d="m 17.930539,1033.1832 v 2.2677 h -2.267556 v -2.2677 z"
       inkscape:connector-curvature="0"
       style="fill:#ffe500" />
    <path
       id="connector1pin"
       d="m 15.662983,1038.9076 h 2.267515 v 2.2677 h -2.267515 z"
       inkscape:connector-curvature="0"
       style="fill:#ffe500" />
    <path
       id="connector0pin"
       d="m 15.662983,1044.5859 h 2.267515 v 2.2677 h -2.267515 z"
       inkscape:connector-curvature="0"
       style="fill:#ffe500" />
  </g>
  <text
     id="tspan11445"
     x="15.16562"
     y="53.843815"
     font-size="3.2"
     style="font-size:4px;font-family:OCRA;fill:#ffffff;stroke-width:1.25">GND</text>
  <text
     id="tspan11445-6"
     x="15.16562"
     y="46.652634"
     font-size="3.2"
     style="font-size:4px;font-family:OCRA;fill:#ffffff;stroke-width:1.25">VCC</text>
  <text
     id="tspan11445-1"
     x="15.16562"
     y="39.461452"
     font-size="3.2"
     style="font-size:4px;font-family:OCRA;fill:#ffffff;stroke-width:1.25">DIO</text>
  <text
     id="tspan11445-7"
     x="15.16562"
     y="32.270267"
     font-size="3.2"
     style="font-size:4px;font-family:OCRA;fill:#ffffff;stroke-width:1.25">CLK</text>
  <text
     id="tspan11445-74"
     x="54.142021"
     y="68.017044"
     font-size="3.2"
     style="font-size:4px;font-family:OCRA;fill:#ffffff;stroke-width:1.25">TM1637 - 4 Digit Display</text>
  <circle
     r="1.827"
     id="connector0pin-8"
     cx="58.488003"
     cy="54.790489"
     style="fill:none;stroke:#9a916c;stroke-width:0.48899999" />
  <circle
     r="1.827"
     id="connector1pin-7"
     cx="65.688004"
     cy="54.790489"
     style="fill:none;stroke:#9a916c;stroke-width:0.48899999" />
  <circle
     r="1.827"
     id="connector2pin-1"
     cx="72.888"
     cy="54.790489"
     style="fill:none;stroke:#9a916c;stroke-width:0.48899999" />
  <circle
     r="1.827"
     id="connector3pin-2"
     cx="80.088005"
     cy="54.790489"
     style="fill:none;stroke:#9a916c;stroke-width:0.48899999" />
  <circle
     r="1.827"
     id="connector4pin"
     cx="87.288002"
     cy="54.790489"
     style="fill:none;stroke:#9a916c;stroke-width:0.48899999" />
  <circle
     r="1.827"
     id="connector5pin"
     cx="94.489006"
     cy="54.790489"
     style="fill:none;stroke:#9a916c;stroke-width:0.48899999" />
  <circle
     r="1.827"
     id="connector7pin"
     cx="108.88801"
     cy="54.790489"
     style="fill:none;stroke:#9a916c;stroke-width:0.48899999" />
  <circle
     r="1.827"
     id="connector6pin"
     cx="101.688"
     cy="54.790489"
     style="fill:none;stroke:#9a916c;stroke-width:0.48899999" />
  <circle
     r="1.827"
     id="connector8pin"
     cx="108.88801"
     cy="25.99049"
     style="fill:none;stroke:#9a916c;stroke-width:0.48899999" />
  <circle
     r="1.827"
     id="connector13pin"
     cx="72.888"
     cy="25.99049"
     style="fill:none;stroke:#9a916c;stroke-width:0.48899999" />
  <circle
     r="1.827"
     id="connector12pin"
     cx="80.088005"
     cy="25.99049"
     style="fill:none;stroke:#9a916c;stroke-width:0.48899999" />
  <circle
     r="1.827"
     id="connector11pin"
     cx="87.288002"
     cy="25.99049"
     style="fill:none;stroke:#9a916c;stroke-width:0.48899999" />
  <circle
     r="1.827"
     id="connector9pin"
     cx="101.688"
     cy="25.99049"
     style="fill:none;stroke:#9a916c;stroke-width:0.48899999" />
  <circle
     r="1.827"
     id="connector10pin"
     cx="94.489006"
     cy="25.99049"
     style="fill:none;stroke:#9a916c;stroke-width:0.48899999" />
  <circle
     r="1.827"
     id="connector14pin"
     cx="65.688004"
     cy="25.99049"
     style="fill:none;stroke:#9a916c;stroke-width:0.48899999" />
  <circle
     r="1.827"
     id="connector15pin"
     cx="58.488003"
     cy="25.99049"
     style="fill:none;stroke:#9a916c;stroke-width:0.48899999" />
  <polygon
     points="113.365,0 114.48,1 114.48,36.863 1,36.863 0,35.556 0,0 "
     id="polygon20"
     style="fill:#323232"
     transform="translate(26.560003,22.06849)" />
  <polygon
     points="22.16,3.491 22.989,4.318 21.329,6.808 10.545,6.808 8.89,4.318 9.718,3.491 "
     id="polygon22"
     style="fill:#c7c7c7;fill-opacity:1"
     transform="translate(26.560003,22.06849)" />
  <polygon
     points="24.648,6.808 22.989,15.934 21.329,17.591 19.672,15.934 21.329,7.636 23.819,5.147 "
     id="polygon24"
     style="fill:#c7c7c7"
     transform="translate(26.560003,22.06849)" />
  <polygon
     points="22.16,20.078 20.501,29.205 18.842,30.863 17.184,29.205 18.842,20.912 21.329,18.42 "
     id="polygon26"
     style="fill:#c7c7c7"
     transform="translate(26.560003,22.06849)" />
  <polygon
     points="4.74,32.521 3.91,31.689 5.569,29.205 16.354,29.205 18.013,31.691 17.184,32.521 "
     id="polygon28"
     style="fill:#c7c7c7;fill-opacity:1"
     transform="translate(26.560003,22.06849)" />
  <polygon
     points="2.252,29.205 3.91,20.078 5.569,18.42 7.228,20.078 5.569,28.373 3.08,30.863 "
     id="polygon30"
     style="fill:#c7c7c7;fill-opacity:1"
     transform="translate(26.560003,22.06849)" />
  <polygon
     points="4.74,15.934 6.4,6.808 8.058,5.147 9.718,6.808 8.058,15.104 5.569,17.591 "
     id="polygon32"
     style="fill:#c7c7c7;fill-opacity:1"
     transform="translate(26.560003,22.06849)" />
  <polyline
     points="6.4,17.591 8.058,15.934 18.842,15.934 20.501,17.591 18.842,19.25 8.058,19.25  "
     id="polyline34"
     style="fill:#c7c7c7"
     transform="translate(26.560003,22.06849)" />
  <polygon
     points="50.948,3.491 51.777,4.318 50.117,6.808 39.333,6.808 37.677,4.318 38.506,3.491 "
     id="polygon38"
     style="fill:#c7c7c7;fill-opacity:1"
     transform="translate(26.560003,22.06849)" />
  <polygon
     points="53.437,6.808 51.777,15.934 50.117,17.591 48.46,15.934 50.117,7.636 52.607,5.147 "
     id="polygon40"
     style="fill:#c7c7c7;fill-opacity:1"
     transform="translate(26.560003,22.06849)" />
  <polygon
     points="50.948,20.078 49.289,29.205 47.63,30.863 45.972,29.205 47.63,20.912 50.117,18.42 "
     id="polygon42"
     style="fill:#c7c7c7;fill-opacity:1"
     transform="translate(26.560003,22.06849)" />
  <polygon
     points="33.528,32.521 32.698,31.689 34.357,29.205 45.143,29.205 46.8,31.691 45.972,32.521 "
     id="polygon44"
     style="fill:#c7c7c7;fill-opacity:1"
     transform="translate(26.560003,22.06849)" />
  <polygon
     points="31.04,29.205 32.698,20.078 34.357,18.42 36.016,20.078 34.357,28.373 31.868,30.863 "
     id="polygon46"
     style="fill:#c7c7c7;fill-opacity:1"
     transform="translate(26.560003,22.06849)" />
  <polygon
     points="33.528,15.934 35.188,6.808 36.846,5.147 38.506,6.808 36.846,15.104 34.357,17.591 "
     id="polygon48"
     style="fill:#c7c7c7;fill-opacity:1"
     transform="translate(26.560003,22.06849)" />
  <polyline
     points="35.188,17.591 36.846,15.934 47.63,15.934 49.289,17.591 47.63,19.25 36.846,19.25  "
     id="polyline50"
     style="fill:#c7c7c7"
     transform="translate(26.560003,22.06849)" />
  <circle
     r="1.748"
     id="circle54"
     cx="82.181"
     cy="46.376492"
     style="fill:#c7c7c7" />
  <circle
     r="1.748"
     id="circle56"
     cx="84.140007"
     cy="33.437489"
     style="fill:#c7c7c7" />
  <polygon
     points="79.748,3.491 80.577,4.318 78.917,6.808 68.133,6.808 66.477,4.318 67.306,3.491 "
     id="polygon60"
     style="fill:#c7c7c7;fill-opacity:1"
     transform="translate(26.560003,22.06849)" />
  <polygon
     points="82.236,6.808 80.577,15.934 78.917,17.591 77.26,15.934 78.917,7.636 81.406,5.147 "
     id="polygon62"
     style="fill:#c7c7c7"
     transform="translate(26.560003,22.06849)" />
  <polygon
     points="79.748,20.078 78.089,29.205 76.43,30.863 74.771,29.205 76.43,20.912 78.917,18.42 "
     id="polygon64"
     style="fill:#c7c7c7"
     transform="translate(26.560003,22.06849)" />
  <polygon
     points="62.328,32.521 61.498,31.689 63.157,29.205 73.941,29.205 75.6,31.691 74.771,32.521 "
     id="polygon66"
     style="fill:#c7c7c7;fill-opacity:1"
     transform="translate(26.560003,22.06849)" />
  <polygon
     points="59.84,29.205 61.498,20.078 63.157,18.42 64.815,20.078 63.157,28.373 60.668,30.863 "
     id="polygon68"
     style="fill:#c7c7c7;fill-opacity:1"
     transform="translate(26.560003,22.06849)" />
  <polygon
     points="62.328,15.934 63.988,6.808 65.646,5.147 67.306,6.808 65.646,15.104 63.157,17.591 "
     id="polygon70"
     style="fill:#c7c7c7;fill-opacity:1"
     transform="translate(26.560003,22.06849)" />
  <polyline
     points="63.988,17.591 65.646,15.934 76.43,15.934 78.089,17.591 76.43,19.25 65.646,19.25  "
     id="polyline72"
     style="fill:#c7c7c7"
     transform="translate(26.560003,22.06849)" />
  <polygon
     points="108.623,3.491 109.452,4.318 107.792,6.808 97.008,6.808 95.352,4.318 96.181,3.491 "
     id="polygon76"
     style="fill:#c7c7c7;fill-opacity:1"
     transform="translate(26.560003,22.06849)" />
  <polygon
     points="111.111,6.808 109.452,15.934 107.792,17.591 106.135,15.934 107.792,7.636 110.281,5.147 "
     id="polygon78"
     style="fill:#c7c7c7;fill-opacity:1"
     transform="translate(26.560003,22.06849)" />
  <polygon
     points="108.623,20.078 106.964,29.205 105.305,30.863 103.646,29.205 105.305,20.912 107.792,18.42 "
     id="polygon80"
     style="fill:#c7c7c7;fill-opacity:1"
     transform="translate(26.560003,22.06849)" />
  <polygon
     points="91.203,32.521 90.373,31.689 92.032,29.205 102.816,29.205 104.475,31.691 103.646,32.521 "
     id="polygon82"
     style="fill:#c7c7c7;fill-opacity:1"
     transform="translate(26.560003,22.06849)" />
  <polygon
     points="88.715,29.205 90.373,20.078 92.032,18.42 93.69,20.078 92.032,28.373 89.543,30.863 "
     id="polygon84"
     style="fill:#c7c7c7;fill-opacity:1"
     transform="translate(26.560003,22.06849)" />
  <polygon
     points="91.203,15.934 92.863,6.808 94.521,5.147 96.181,6.808 94.521,15.104 92.032,17.591 "
     id="polygon86"
     style="fill:#c7c7c7;fill-opacity:1"
     transform="translate(26.560003,22.06849)" />
  <polyline
     points="92.863,17.591 94.521,15.934 105.305,15.934 106.964,17.591 105.305,19.25 94.521,19.25  "
     id="polyline88"
     style="fill:#c7c7c7"
     transform="translate(26.560003,22.06849)" />
  <polygon
     points="0,35.556 1,36.863 114.48,36.863 113.48,35.556 "
     id="polygon92"
     style="fill:#c7c7c7"
     transform="translate(26.560003,22.06849)" />
  <polygon
     points="114.48,36.863 114.48,1 113.365,0 113.365,35.556 "
     id="polygon94"
     style="fill:#aaaaaa"
     transform="translate(26.560003,22.06849)" />
  <circle
     style="opacity:1;fill:#fefefe;fill-opacity:1;stroke:#eeeeee;stroke-width:1.00157475;stroke-linecap:butt;stroke-miterlimit:4;stroke-dasharray:none;stroke-opacity:0"
     id="path5364"
     cx="11.7"
     cy="17.614283"
     r="3.2142859" />
  <circle
     style="opacity:1;fill:#fefefe;fill-opacity:1;stroke:#eeeeee;stroke-width:1.00157475;stroke-linecap:butt;stroke-miterlimit:4;stroke-dasharray:none;stroke-opacity:0"
     id="path5364-4"
     cx="11.571429"
     cy="66.599998"
     r="3.2142859" />
  <circle
     style="opacity:1;fill:#fefefe;fill-opacity:1;stroke:#eeeeee;stroke-width:1.00157475;stroke-linecap:butt;stroke-miterlimit:4;stroke-dasharray:none;stroke-opacity:0"
     id="path5364-0"
     cx="141.94286"
     cy="66.599998"
     r="3.2142859" />
  <circle
     style="opacity:1;fill:#fefefe;fill-opacity:1;stroke:#eeeeee;stroke-width:1.00157475;stroke-linecap:butt;stroke-miterlimit:4;stroke-dasharray:none;stroke-opacity:0"
     id="path5364-42"
     cx="142.20001"
     cy="17.228569"
     r="3.2142859" />
</svg>
